<svg xmlns="http://www.w3.org/2000/svg" shape-rendering="geometricPrecision" text-rendering="geometricPrecision" image-rendering="optimizeQuality" fill-rule="evenodd" clip-rule="evenodd" viewBox="0 0 512 494.52"><path fill-rule="nonzero" d="M46.78 163.14c.15-1.83.54-3.67 1.22-5.47 17.74-47.35 49.28-86.81 89.07-114.38C176.81 15.74 224.74 0 275.32 0c67.03 0 127.71 27.17 171.64 71.1 31.74 31.73 54.72 72.22 65.04 117.53h-42.26c-9.43-33.97-27.53-64.34-51.75-88.56-36.51-36.51-86.96-59.09-142.67-59.09-42.19 0-82.06 13.06-115.04 35.92-31.3 21.69-56.46 52.2-71.55 88.72-1.59-.56-3.25-1.02-4.96-1.36-13.23-2.64-25.53-2.88-36.86-1.14l-.13.02zm345.31 35.16h-44.28v-69.2h22.14v51.49h22.14v17.71zm-52.03 0h-44.29v-69.2h22.14v51.49h22.15v17.71zm-96.88 0h-23.37l17.94-69.2h34.21l17.94 69.2h-23.37l-2.54-10.96h-18.27l-2.54 10.96zm11.07-47.94-4.55 19.38h10.19l-4.43-19.38h-1.21zm-38.65 28.12 1.66 18.6c-4.65 1.92-10.48 2.88-17.49 2.88-7.01 0-12.64-.74-16.88-2.21-4.25-1.48-7.59-3.81-10.02-6.98-2.44-3.17-4.14-6.9-5.1-11.18-.96-4.28-1.44-9.56-1.44-15.83 0-6.28.48-11.57 1.44-15.89s2.66-8.07 5.1-11.24c4.72-6.13 13.39-9.19 26.02-9.19 2.8 0 6.1.28 9.9.83 3.8.55 6.63 1.24 8.47 2.05l-3.32 16.94c-4.8-1.03-9.19-1.55-13.17-1.55-3.99 0-6.76.37-8.31 1.11-1.55.73-2.32 2.21-2.32 4.42v29.01c2.87.59 5.79.89 8.75.89 6.27 0 11.84-.89 16.71-2.66zm259.67 52.28h34.96l-16.39 101.38h-43.66l-7.69-37.31h-2.01l-7.53 37.31H389.3l-16.4-101.38h34.96l7.86 56.61h1.01l12.04-56.61h25.59l11.88 56.61h1l8.03-56.61zm-204.4 50.77c0-18.5 3.57-31.98 10.71-40.47 7.13-8.49 20.01-12.74 38.64-12.74 18.62 0 31.5 4.25 38.64 12.74 7.13 8.49 10.7 21.97 10.7 40.47 0 9.19-.75 16.92-2.26 23.2-1.5 6.27-4.1 11.73-7.77 16.38-3.69 4.65-8.76 8.06-15.23 10.22-6.46 2.16-14.49 3.24-24.08 3.24-9.59 0-17.62-1.08-24.09-3.24-6.47-2.16-11.54-5.57-15.22-10.22-3.68-4.65-6.27-10.11-7.78-16.38-1.5-6.28-2.26-14.01-2.26-23.2zm35.96-16.87v42.17h13.89c4.57 0 7.88-.51 9.95-1.54 2.06-1.03 3.1-3.38 3.1-7.06v-42.17h-14.05c-4.47 0-7.72.52-9.79 1.54-2.06 1.03-3.1 3.38-3.1 7.06zm-79.11 67.48-25.59-36.01c-.89-1.19-1.45-3.79-1.67-7.79h-.67v43.8h-33.46V230.76h31.45l25.59 36c.89 1.2 1.45 3.79 1.67 7.79h.67v-43.79h33.45v101.38h-31.44zM75.47 318.91c7.26 16.65 15.94 32.82 27.54 48.07 12.6 16.62 28.81 32.26 50.49 46.46 4.1 2.61 8.63-.75 11.84-3.33 1.88-1.51 4.29-3.99 6.82-6.72 10.08-10.65 22.57-23.86 37.2-14.98.32.19.56.4.89.59l48.2 35.16c.15.1.32.3.46.4 6.28 5.4 8.29 12.9 7.48 21.05-2.23 20.5-18.32 37.58-37.41 43.85-10.05 3.37-20.97 4.58-31.38 4.98-16.35.62-31.26-2.53-46.15-8.95-14.57-6.3-28.91-15.65-44.38-27.7l-1.14-.92c-7.1-5.57-14.76-11.55-22.17-18.42-27.12-25.51-53.69-60.96-69.43-98.5C1.14 308.44-4.34 275.36 3.88 245.3c4.54-16.47 13.4-30.94 27.03-39.64 11.89-7.63 27.15-10.86 46.03-7.09 2.17.4 3.99 1.89 4.8 3.88l26.9 59.31c4.14 6.78 4.07 13.02.76 18.94-2.74 4.85-7.65 9.04-14.15 12.77-1.94 1.32-4.22 2.63-6.61 4-5.9 3.37-12.39 7.13-14.51 11.94-1.72 3.88-.2 5.98 1.34 9.5zm402.99 56.57a243.654 243.654 0 0 1-17.39 23.37c-36.09 42.91-86.75 73.15-144.31 83.07-8.82 1.5-17.28-2.88-21.37-10.3 2.9-7.03 4.86-14.51 5.7-22.32l.02-.27c.13-1.3.23-2.61.28-3.91 2.45-1.75 5.32-3 8.49-3.54 46.59-8.02 87.72-32.01 117.51-66.1h51.07z"/></svg>